<?xml version="1.0" encoding="utf-8"?>
<!-- Generator: Adobe Illustrator 27.3.1, SVG Export Plug-In . SVG Version: 6.00 Build 0)  -->
<svg version="1.1" id="Layer_1" xmlns="http://www.w3.org/2000/svg" xmlns:xlink="http://www.w3.org/1999/xlink" x="0px" y="0px"
	 viewBox="0 0 48 48" style="enable-background:new 0 0 48 48;" xml:space="preserve">
<style type="text/css">
	.st0{fill:#F78F1E;}
	.st1{fill:#68B3E3;}
	.st2{fill:#E9234D;}
	.st3{fill:#43B75B;}
	.st4{fill:#1FB4AD;}
</style>
<g id="Layer_00000127725028184340532100000003760102079509733535_">
	<path id="Layer_00000000933371544949696040000004850120420198813340_" class="st0" d="M22.7,3c0,1.1-1,2.1-2.1,2.1H5.1v15.5
		c0,1.2-1,2.1-2.1,2.1S1,21.8,1,20.6V3c0-1.1,1-2,2.1-2h17.6C21.8,1,22.7,1.9,22.7,3z"/>
	<path id="Layer_00000142168267193723983460000001883486364812516230_" class="st1" d="M47,3v17.6c0,1.1-1,2.1-2.1,2.1
		s-2.1-1-2.1-2.1V5.1H27.3c-1.1,0-2.1-1-2.1-2.1s1-2.1,2.1-2.1H45C46.1,0.9,47,1.9,47,3z"/>
	<path id="Layer_00000108999961391744344780000017407744848879365252_" class="st2" d="M47,27.3v17.6c0,0.1-0.1,0.3-0.1,0.4
		c-0.2,1-1,1.7-2,1.7H27.3c-1.1,0-2.1-1-2.1-2.1s1-2.1,2.1-2.1h15.5V27.3c0-1.1,1-2.1,2.1-2.1S47,26.2,47,27.3z"/>
	<path id="Layer_00000148652921356732037470000004451876885493821362_" class="st3" d="M22.7,45c0,1.1-1,2.1-2.1,2.1H3
		c-1.1,0-2.1-1-2.1-2.1V27.4c0-1.2,1-2.1,2.1-2.1s2.1,1,2.1,2.1v15.5h15.5C21.8,42.9,22.7,43.8,22.7,45z"/>
	<path id="Layer_00000093165366776215158790000010257699167446178463_" class="st4" d="M40.3,17.6c0,0.5-0.2,0.9-0.5,1.2
		c-0.4,0.3-0.7,0.5-1.2,0.5h-4.4v10.5c0,0.5-0.2,0.9-0.5,1.2c-0.4,0.3-0.7,0.5-1.2,0.5c-0.5,0-0.9-0.2-1.2-0.5
		c-0.3-0.4-0.5-0.7-0.5-1.2V19.4H13c-0.4,0-0.7,0.2-1,0.4c-0.3,0.2-0.4,0.6-0.4,1s0.1,0.7,0.4,1c0.2,0.3,0.6,0.4,1,0.4h6
		c1.3,0,2.4,0.5,3.3,1.4c0.9,0.9,1.4,2,1.4,3.3c0,1.3-0.5,2.4-1.4,3.3c-0.9,0.9-2,1.4-3.3,1.4H9.9c-0.5,0-0.9-0.2-1.2-0.5
		c-0.3-0.4-0.5-0.7-0.5-1.2s0.2-0.9,0.5-1.2c0.4-0.3,0.7-0.5,1.2-0.5H19c0.4,0,0.7-0.1,1-0.4c0.3-0.2,0.4-0.6,0.4-1s-0.1-0.7-0.4-1
		c-0.2-0.3-0.6-0.4-1-0.4H13c-1.3,0-2.4-0.5-3.3-1.4c-0.9-0.9-1.4-2-1.4-3.3c0-1.3,0.5-2.4,1.4-3.3c0.9-0.9,2-1.4,3.3-1.4h25.6
		c0.5,0,0.9,0.2,1.2,0.5C40.1,16.8,40.2,17.2,40.3,17.6z"/>
</g>
</svg>
